PathFileType	4	(X/Y/Z)	 s03c0001.trc
DataRate	CameraRate	NumFrames	NumMarkers	Units	OrigDataRate	OrigDataStartFrame	OrigNumFrames
200	200	4	49	mm	200	1501	2000
Frame#	Time	racr			lacr			c7			jug			rlel			rdr			llel			ldr			s2			lic			ric			lasi			rasi			rpsi			lpsi			rgt			lgt			rth1			rth2			rth3			rth4			rlfc			rmfc			rsh1			rsh2			rsh3			rsh4			rlmal			rmmal			rcal			rtoe			rmt5			rmt1			lth1			lth2			lth4			lth3			llfc			lmfc			lsh1			lsh2			lsh3			lsh4			llmal			lmmal			lcal			ltoe			lmt1			lmt5			
		X1	Y1	Z1	X2	Y2	Z2	X3	Y3	Z3	X4	Y4	Z4	X5	Y5	Z5	X6	Y6	Z6	X7	Y7	Z7	X8	Y8	Z8	X9	Y9	Z9	X10	Y10	Z10	X11	Y11	Z11	X12	Y12	Z12	X13	Y13	Z13	X14	Y14	Z14	X15	Y15	Z15	X16	Y16	Z16	X17	Y17	Z17	X18	Y18	Z18	X19	Y19	Z19	X20	Y20	Z20	X21	Y21	Z21	X22	Y22	Z22	X23	Y23	Z23	X24	Y24	Z24	X25	Y25	Z25	X26	Y26	Z26	X27	Y27	Z27	X28	Y28	Z28	X29	Y29	Z29	X30	Y30	Z30	X31	Y31	Z31	X32	Y32	Z32	X33	Y33	Z33	X34	Y34	Z34	X35	Y35	Z35	X36	Y36	Z36	X37	Y37	Z37	X38	Y38	Z38	X39	Y39	Z39	X40	Y40	Z40	X41	Y41	Z41	X42	Y42	Z42	X43	Y43	Z43	X44	Y44	Z44	X45	Y45	Z45	X46	Y46	Z46	X47	Y47	Z47	X48	Y48	Z48	X49	Y49	Z49	
1501	7.5050	261.117639	1571.385685	581.868520	255.859142	1587.402692	201.580347	195.052861	1608.103793	394.907299	360.686825	1554.759874	393.176980	186.070430	1299.843924	689.699347	279.759138	1119.715523	885.092254	181.414027	1315.487954	98.204186	262.169908	1123.730263	-106.461873	158.401048	1067.193911	373.995439	293.616403	1164.872414	194.578376	285.088611	1150.889858	566.761147	356.406752	1103.777955	237.348619	356.086973	1100.006039	520.624552	159.578661	1107.948059	423.659392	163.834672	1116.177255	340.759212	267.956369	1008.884576	561.441937	282.627513	1015.816593	187.108313	281.458030	870.319901	576.664907	312.348868	786.895662	570.980720	302.462805	703.640084	556.358124	348.455236	792.404040	566.384329	297.010821	577.485133	524.532016	328.411079	556.917126	418.251973	242.720437	412.667121	552.579119	253.874223	323.565693	547.868279	218.468478	243.222618	542.296090	287.969279	320.214589	530.476580	208.738882	104.042810	531.133421	248.753827	122.021416	450.161672	165.151778	56.063032	483.452256	468.452814	91.145574	503.522120	353.434061	43.339631	563.440899	378.641964	81.352310	454.114590	293.685445	865.949741	174.414241	317.173527	782.877828	182.064258	353.207742	784.985976	184.189646	295.774574	698.205981	195.729113	309.847414	577.226708	221.190986	331.232136	559.223398	334.499698	250.976974	413.408683	184.698772	263.719393	329.315565	193.184542	228.991681	244.669856	196.574014	298.016774	325.283072	211.380795	220.592060	110.744288	206.054290	259.066687	124.895885	292.797634	172.529214	55.045960	258.038680	479.397281	92.536883	234.347063	389.111086	73.321677	285.960307	358.226220	50.637836	172.424838	
1502	7.5100	261.102101	1571.368595	581.875226	255.863654	1587.400834	201.599821	195.050682	1608.099511	394.933745	360.686830	1554.759920	393.176991	186.054116	1299.842295	689.708693	279.729783	1119.678353	885.082755	181.410034	1315.508324	98.211770	262.170045	1123.740227	-106.453642	158.412624	1067.195132	374.012847	293.615008	1164.881292	194.583567	285.082283	1150.884283	566.763227	356.448724	1103.786142	237.379475	356.085064	1100.007967	520.644235	159.573096	1107.937517	423.674531	163.828939	1116.169430	340.751547	267.965765	1008.872640	561.451086	282.621178	1015.818726	187.122936	281.478912	870.317927	576.673191	312.360177	786.900445	570.973853	302.472978	703.642197	556.343449	348.469414	792.403458	566.395855	297.037351	577.465990	524.522238	328.395009	556.928127	418.254261	242.708666	412.670099	552.584550	253.871592	323.571013	547.865054	218.471425	243.232967	542.296648	287.969279	320.214588	530.476579	208.749778	104.032725	531.141778	248.735439	122.021918	450.147572	165.155294	56.073753	483.448411	468.469218	91.156745	503.555298	353.449655	43.335890	563.452583	378.647756	81.341347	454.097852	293.681915	865.948724	174.424851	317.169665	782.886810	182.080425	353.205424	784.968248	184.189305	295.783320	698.239221	195.706515	309.853898	577.232092	221.193846	331.247906	559.221517	334.515014	250.989814	413.409220	184.688256	263.725075	329.304610	193.179176	228.991682	244.669857	196.574015	298.022864	325.275654	211.392853	220.606042	110.748279	206.043951	259.063673	124.916711	292.804913	172.514168	55.052406	258.048477	479.418622	92.495035	234.353190	389.096546	73.326057	285.939858	358.227316	50.636993	172.423332	
1503	7.5150	261.110775	1571.370492	581.889505	255.868554	1587.400380	201.620623	195.096813	1608.358727	394.909695	360.700840	1554.738090	393.193521	186.039822	1299.822535	689.705924	279.709104	1119.674268	885.101389	181.425214	1315.519582	98.205066	262.170256	1123.751935	-106.459596	158.412562	1067.182663	374.015876	293.609487	1164.874415	194.602178	285.080242	1150.889038	566.790581	356.437147	1103.791315	237.358727	356.103349	1100.009896	520.640412	159.582811	1107.937659	423.681445	163.846886	1116.170111	340.766499	267.975299	1008.865185	561.458050	282.625454	1015.824331	187.138350	281.444913	870.270911	576.708954	312.379427	786.881112	570.978422	302.489702	703.633574	556.352714	348.470095	792.375832	566.401530	297.029541	577.479573	524.527518	328.392204	556.935015	418.249158	242.719630	412.657407	552.579790	253.862283	323.552760	547.875473	218.451234	243.239051	542.299196	287.987198	320.206527	530.467010	208.743179	104.044110	531.149265	248.733368	122.024084	450.148627	165.155289	56.073747	483.448411	468.469380	91.147221	503.533631	353.454865	43.342757	563.468716	378.667637	81.338007	454.098155	293.683707	865.953924	174.430533	317.170071	782.872270	182.089814	353.208319	784.956540	184.217932	295.782053	698.234797	195.721048	309.849531	577.224156	221.206460	331.240691	559.212923	334.489875	250.985404	413.426864	184.697595	263.716182	329.311753	193.174235	229.008907	244.665170	196.571086	298.034032	325.279999	211.389362	220.594399	110.751829	206.054857	259.068350	124.908170	292.799202	172.514454	55.060496	258.051392	479.420438	92.562611	234.360976	389.108520	73.326360	285.959110	358.212813	50.648466	172.423207	
1504	7.5200	261.105319	1571.361311	581.903812	255.874606	1587.401952	201.641869	195.066243	1608.124009	394.967278	360.702749	1554.744286	393.230850	186.034692	1299.832607	689.705164	279.681497	1119.658579	885.090819	181.420983	1315.530389	98.229047	262.174121	1123.772154	-106.462187	158.424139	1067.183885	374.033283	293.610532	1164.869974	194.610399	285.125971	1150.876318	566.785064	356.450516	1103.789506	237.383083	356.106872	1100.010104	520.663439	159.593425	1107.936772	423.690625	163.854964	1116.170789	340.774806	267.984666	1008.870135	561.468888	282.641681	1015.826678	187.150492	281.457545	870.259725	576.683289	312.390273	786.892254	570.987671	302.488724	703.639760	556.350992	348.490501	792.379145	566.412067	297.031806	577.479554	524.528124	328.434404	556.924807	418.264864	242.723635	412.647767	552.582982	253.868623	323.569176	547.886276	218.462484	243.234778	542.296980	287.968482	320.216852	530.485575	208.747934	104.044617	531.141441	248.734346	122.024518	450.148782	165.155283	56.073740	483.448410	468.450844	91.152524	503.535303	353.442717	43.343548	563.459539	378.663125	81.333888	454.096563	293.700022	865.949315	174.454442	317.206326	782.901995	182.085451	353.226892	784.962253	184.214146	295.788963	698.231599	195.721995	309.843200	577.222966	221.203681	331.285069	559.236008	334.523247	251.017439	413.424853	184.707181	263.727112	329.305453	193.182219	229.000694	244.686861	196.575920	298.030045	325.282375	211.397247	220.596622	110.747260	206.059160	259.058593	124.900483	292.792164	172.524656	55.059589	258.042849	479.396223	92.555040	234.349309	389.107674	73.303165	285.961952	358.212773	50.648489	172.415065	
